HIERARCHY
ROOT Bip001_Pelvis
{
  OFFSET 7.937 94.8971 -8.5489
  CHANNELS 6 Xposition Yposition Zposition Zrotation Xrotation Yrotation
  JOINT Bip001_Spine
  {
    OFFSET 1.44608e-005 10.4157 -0.0118244
    CHANNELS 3 Zrotation Xrotation Yrotation
    JOINT Bip001_L_Thigh
    {
      OFFSET 11.2582 -10.4157 0.0118432
      CHANNELS 3 Zrotation Xrotation Yrotation
      JOINT Bip001_L_Calf
      {
        OFFSET -0.720717 -44.8687 0.366937
        CHANNELS 3 Zrotation Xrotation Yrotation
        JOINT Bip001_L_Foot
        {
          OFFSET -0.664439 -41.3745 -3.62995
          CHANNELS 3 Zrotation Xrotation Yrotation
          JOINT Bip001_L_Toe0
          {
            OFFSET 0.0541047 -10.4146 13.4033
            CHANNELS 3 Zrotation Xrotation Yrotation
            End Site
            {
              OFFSET -1.04503e-005 0 7.70137
            }
          }
        }
      }
    }
    JOINT Bip001_R_Thigh
    {
      OFFSET -11.2582 -10.4156 0.0118122
      CHANNELS 3 Zrotation Xrotation Yrotation
      JOINT Bip001_R_Calf
      {
        OFFSET 0.72059 -44.8687 0.36676
        CHANNELS 3 Zrotation Xrotation Yrotation
        JOINT Bip001_R_Foot
        {
          OFFSET 0.664321 -41.3745 -3.62979
          CHANNELS 3 Zrotation Xrotation Yrotation
          JOINT Bip001_R_Toe0
          {
            OFFSET -0.05417 -10.4146 13.4033
            CHANNELS 3 Zrotation Xrotation Yrotation
            End Site
            {
              OFFSET -1.04873e-005 0 7.70137
            }
          }
        }
      }
    }
    JOINT Bip001_Spine1
    {
      OFFSET 1.90638e-005 14.8539 1.10727
      CHANNELS 3 Zrotation Xrotation Yrotation
      JOINT Bip001_Spine2
      {
        OFFSET 2.28934e-005 14.7848 -1.7233
        CHANNELS 3 Zrotation Xrotation Yrotation
        JOINT Bip001_Neck
        {
          OFFSET 2.24514e-005 15.6905 -0.498826
          CHANNELS 3 Zrotation Xrotation Yrotation
          JOINT Bip001_L_Clavicle
          {
            OFFSET 6.17691 -0.000591152 0.00852867
            CHANNELS 3 Zrotation Xrotation Yrotation
            JOINT Bip001_L_UpperArm
            {
              OFFSET 11.773 -0.0611878 0.00197697
              CHANNELS 3 Zrotation Xrotation Yrotation
              JOINT Bip001_L_Forearm
              {
                OFFSET 26.4515 0.0817568 -2.19579
                CHANNELS 3 Zrotation Xrotation Yrotation
                JOINT Bip001_L_Hand
                {
                  OFFSET 32.8677 0.156744 1.67112
                  CHANNELS 3 Zrotation Xrotation Yrotation
                  JOINT Bip001_L_Finger0
                  {
                    OFFSET 6.16268 -2.25226 6.01674
                    CHANNELS 3 Zrotation Xrotation Yrotation
                    End Site
                    {
                      OFFSET 4.30499 -1.46662 0.618148
                    }
                  }
                  JOINT Bip001_L_Finger1
                  {
                    OFFSET 11.2957 -0.718374 -0.201963
                    CHANNELS 3 Zrotation Xrotation Yrotation
                    End Site
                    {
                      OFFSET 6.31952 -0.405163 -0.0802303
                    }
                  }
                }
              }
            }
          }
          JOINT Bip001_R_Clavicle
          {
            OFFSET -6.17691 -0.000574027 0.00851165
            CHANNELS 3 Zrotation Xrotation Yrotation
            JOINT Bip001_R_UpperArm
            {
              OFFSET -11.773 -0.0611516 0.00194365
              CHANNELS 3 Zrotation Xrotation Yrotation
              JOINT Bip001_R_Forearm
              {
                OFFSET -26.4514 0.0822334 -2.19736
                CHANNELS 3 Zrotation Xrotation Yrotation
                JOINT Bip001_R_Hand
                {
                  OFFSET -32.8677 0.156817 1.67144
                  CHANNELS 3 Zrotation Xrotation Yrotation
                  JOINT Bip001_R_Finger0
                  {
                    OFFSET -6.1627 -2.25224 6.0167
                    CHANNELS 3 Zrotation Xrotation Yrotation
                    End Site
                    {
                      OFFSET -4.30499 -1.46662 0.618134
                    }
                  }
                  JOINT Bip001_R_Finger1
                  {
                    OFFSET -11.2958 -0.718344 -0.201994
                    CHANNELS 3 Zrotation Xrotation Yrotation
                    End Site
                    {
                      OFFSET -6.31952 -0.405146 -0.0802475
                    }
                  }
                }
              }
            }
          }
          JOINT Bip001_Head
          {
            OFFSET 1.11782e-005 11.4912 2.09908
            CHANNELS 3 Zrotation Xrotation Yrotation
            End Site
            {
              OFFSET 2.95144e-005 21.2823 -2.83069e-005
            }
          }
        }
      }
    }
  }
}
MOTION
Frames:	10
Frame Time:	0.04
6.61002 95.6229 -7.82607 -1.04086 -3.40745 -0.118281 0.148047 1.05714 0.248034 7.2902 -4.8735 8.77729 -1.42052 14.7115 -0.73895 -3.60761 -6.41486 0.341888 0.591204 -9.81944 0.370364 -6.38355 -2.88704 0.0386204 0.296351 13.1819 2.15499 0.746465 -7.41802 -9.09133 -1.14284 -11.4884 0.666721 0.103967 2.11448 0.489879 0.103968 2.11449 0.489881 -1.3305 -3.28393 -1.44293 -28.6219 8.67118 -11.1505 -54.1675 40.3438 10.0874 14.7012 2.03006 -28.3122 -4.39511 -0.355175 -0.408324 3.18055e-015 9.54166e-015 -4.77083e-015 3.18055e-015 9.54167e-015 -6.36111e-015 33.0519 10.4917 13.8158 61.9791 35.3168 -22.7354 4.2573 -36.2967 26.8992 14.7957 -2.01659 -13.0999 -7.95139e-016 0 -3.18055e-015 -1.98785e-015 0 -3.18055e-015 -1.21253 -0.101164 -1.48841 
6.42552 95.6113 -7.76889 -1.22135 -3.49472 -0.303589 0.221043 1.09449 0.173951 7.56733 -4.80355 9.56693 -1.2747 14.9051 -1.18509 -3.77126 -6.57152 0.113897 0.603698 -9.80199 0.444397 -6.12849 -2.84432 0.350444 0.284642 13.1684 2.12069 0.617073 -7.41426 -9.1358 -1.12945 -11.4884 0.672425 0.249423 2.18933 0.340491 0.249706 2.18933 0.340495 -1.99904 -3.24185 -1.16987 -28.0359 8.6888 -11.0971 -54.0271 40.8497 9.80567 14.7192 3.25086 -27.5296 -5.19039 -0.336931 -0.874841 -4.41391e-032 3.18055e-015 7.95139e-016 -1.59028e-015 0 7.95139e-016 33.1464 10.2967 13.8508 61.6929 30.997 -22.9933 4.23493 -33.7947 33.0323 12.6518 -2.46753 -14.3669 -1.39149e-015 3.18055e-015 -0 -1.39149e-015 6.36111e-015 -0 -0.853881 -0.040834 -1.48491 
6.40633 95.6095 -7.70258 -1.12181 -3.644 -0.560258 0.205374 1.13713 0.168182 7.42561 -4.51038 8.42252 -1.4941 14.6651 -0.227214 -3.81705 -6.57523 0.499686 0.615192 -9.78207 0.512943 -6.26327 -2.84918 0.70468 0.462262 13.3622 2.17757 0.518748 -7.53471 -9.30005 -1.14823 -11.4829 0.670304 0.216027 2.27455 0.341811 0.216027 2.27456 0.341815 -2.19516 -3.27967 -1.07139 -27.7751 8.73576 -11.0834 -53.9163 41.4816 9.69455 14.822 4.18174 -26.8651 -5.79587 -0.332567 -0.94387 1.59028e-015 -3.18055e-015 2.38542e-015 3.18055e-015 -3.18056e-015 2.38542e-015 32.5937 10.1034 13.6752 60.3372 25.2334 -22.5897 3.14117 -29.2499 40.2819 9.51386 -1.77717 -15.4179 3.97569e-016 -3.18055e-015 -0 5.96354e-016 -6.36111e-015 -0 -0.795116 0.0574304 -1.45274 
6.30766 95.5995 -7.70082 -1.20046 -3.54982 -0.78666 0.205172 1.12399 0.167716 7.61962 -4.55695 8.73473 -1.52623 14.7402 -0.351565 -3.87219 -6.65157 0.505116 0.632352 -9.76748 0.54126 -6.11079 -3.01907 -1.21525 -0.100842 13.4902 3.31516 0.652101 -7.5483 -8.31346 -1.1425 -11.5154 0.752508 0.212676 2.24829 0.332329 0.21272 2.24829 0.332261 -2.3811 -3.33231 -0.968811 -27.4716 8.73851 -10.9267 -53.4668 41.7156 9.40892 14.9732 5.00321 -26.2126 -6.35394 -0.414904 -1.0502 3.53112e-031 6.36111e-015 -3.18055e-015 -1.59028e-015 6.36111e-015 -1.59028e-015 32.3782 9.97697 13.4564 57.4173 16.8946 -22.5052 0.735528 -22.4685 50.6199 6.16622 -0.536106 -16.4916 -4.41391e-032 -1.59028e-015 -1.59028e-015 7.95139e-016 -1.59028e-015 -3.18055e-015 -0.660157 0.114054 -1.43129 
6.30862 95.6073 -7.75826 -1.13585 -3.44011 -0.943238 0.184453 1.1131 0.167276 7.54805 -4.57482 8.62233 -1.53982 14.554 -0.169583 -3.89536 -6.55465 0.584473 0.646419 -9.75599 0.56785 -6.18902 -3.23006 -0.180814 0.226772 13.5485 2.93437 0.535814 -7.53874 -8.84927 -1.1763 -11.4908 0.731688 0.166775 2.2173 0.330202 0.166574 2.2173 0.330832 -2.474 -3.52255 -0.958144 -27.1083 8.84951 -10.7813 -53.0655 41.1352 9.03827 14.683 5.2169 -25.667 -6.00942 -0.383845 -0.765409 -3.97252e-031 -9.54166e-015 -2.38542e-015 -1.59028e-015 -1.27222e-014 -7.95139e-016 32.3588 10.0461 13.1734 52.0051 4.67941 -22.2495 -5.3909 -11.3424 63.9551 -1.70577 1.14833 -15.8719 -2.38542e-015 1.59028e-015 9.54166e-015 -7.95139e-016 3.18056e-015 6.36111e-015 -0.754585 0.371577 -1.41735 
6.27023 95.6141 -7.80664 -1.1908 -3.39339 -0.998171 0.203978 1.10702 0.153121 7.63367 -4.62596 8.0918 -1.74042 14.524 0.139402 -3.86535 -6.54856 0.852847 0.659029 -9.74328 0.623497 -6.10656 -3.28456 0.0185498 0.239164 13.4784 2.92866 0.485293 -7.45491 -8.99031 -1.16234 -11.4902 0.73624 0.208372 2.21428 0.297722 0.208258 2.21428 0.297722 -2.40346 -3.4443 -0.896789 -26.8479 8.80027 -10.9634 -52.5493 40.1573 8.6548 14.1963 5.01051 -25.3999 -5.52716 -0.374041 -0.366929 -3.18055e-015 0 -0 -4.77083e-015 3.18056e-015 -0 31.6259 9.66693 12.7188 44.265 -13.4186 -21.7556 -13.5908 2.60904 80.4412 -7.33231 2.02495 -11.3163 -3.97569e-015 -5.96354e-015 9.54166e-015 -3.57812e-015 -4.57205e-015 6.36111e-015 -0.954662 0.370019 -1.29581 
6.3484 95.6197 -7.79898 -0.878866 -3.3478 -0.904671 0.163157 1.07985 0.0858118 7.23379 -4.43911 8.87744 -1.43205 14.0866 -0.407498 -3.89883 -6.2948 0.586693 0.658079 -9.74469 0.612543 -6.47996 -3.44195 -0.214817 0.282745 13.8072 3.1848 0.504731 -7.66322 -9.0086 -1.1925 -11.4887 0.722968 0.124104 2.15979 0.163706 0.124212 2.15978 0.163818 -2.32851 -2.92288 -0.787214 -26.9838 8.37044 -11.2364 -51.9802 39.382 8.72031 14.1238 4.68709 -25.4068 -5.30441 -0.333161 -0.154986 1.59028e-015 6.36111e-015 -7.95139e-016 3.18055e-015 9.54167e-015 -2.38542e-015 30.1933 8.78279 12.4773 40.7105 -20.6045 -17.4737 -20.872 3.74488 92.2431 -12.4646 2.54268 -7.6747 -6.36111e-015 -8.74652e-015 -0 -3.18055e-015 -1.11319e-014 -0 -0.987514 0.13641 -1.17482 
6.23144 95.6223 -7.99807 -1.08716 -3.21797 -0.711766 0.212901 1.02925 0.0538799 7.53606 -4.84983 8.96831 -1.45667 14.4377 -0.296961 -3.95571 -6.26522 0.296908 0.648091 -9.76267 0.549227 -6.12423 -3.52768 0.498475 0.299053 13.6124 2.9296 0.341516 -7.43721 -9.61999 -1.11952 -11.4845 0.666093 0.234747 2.05857 0.0945105 0.234969 2.05857 0.0947522 -2.2558 -2.48176 -0.809396 -27.2322 7.96439 -11.33 -51.2441 39.8335 8.61227 14.0673 3.93179 -25.2746 -5.05172 -0.14109 0.0260287 1.59028e-015 3.18055e-015 1.59028e-015 3.18055e-015 3.18056e-015 -0 28.7269 8.07026 12.4036 38.3613 -24.231 -8.8671 -24.1072 1.58613 98.0614 -17.7435 3.28011 -5.60067 6.36111e-015 8.74652e-015 -0 6.36111e-015 9.54167e-015 -1.59028e-015 -0.988979 0.0399502 -1.18781 
6.20804 95.6333 -8.06222 -0.890013 -3.10977 -0.189753 0.123717 0.988473 0.0933559 7.37134 -4.96968 8.87567 -1.30562 14.1697 -0.398521 -4.01576 -5.96804 0.00710246 0.637986 -9.78077 0.485961 -6.24446 -3.58827 0.0893321 0.344248 13.7709 2.90203 0.318031 -7.55868 -9.74189 -1.14209 -11.4742 0.659252 0.0547937 1.97698 0.179373 0.0551058 1.97698 0.17937 -1.2869 -2.27055 -1.2787 -27.6746 7.6618 -11.5923 -50.7598 39.5375 8.11722 13.9171 3.93521 -25.0365 -4.91564 -0.193968 0.184027 8.82781e-032 -6.36111e-015 7.95139e-016 1.59028e-015 -6.36111e-015 -1.59028e-015 27.4471 7.94402 12.5906 35.6542 -28.7238 1.50479 -25.9767 0.976588 99.602 -21.6796 3.62928 -3.8511 -9.54166e-015 1.15295e-014 3.97569e-015 -9.54166e-015 1.07344e-014 7.55382e-015 -1.58024 0.0397075 -1.25012 
6.11838 95.6403 -8.15762 -0.893682 -3.03659 0.162046 0.131601 0.962822 0.194302 7.41748 -5.16435 9.86358 -0.987937 14.1878 -1.34049 -4.0962 -5.80014 -0.457607 0.628321 -9.79991 0.424552 -6.17659 -3.60525 0.0879121 0.40306 13.7587 2.74088 0.216598 -7.53221 -10.0318 -1.12887 -11.4697 0.631834 0.0735997 1.92575 0.380992 0.0736003 1.92576 0.380994 -1.03395 -2.33946 -1.63829 -27.7154 7.68153 -11.7296 -50.278 39.1449 7.52087 13.7682 3.7822 -25.0084 -4.95676 -0.25665 -0.0516824 -6.36111e-015 -3.18055e-015 1.59028e-015 -3.18055e-015 0 1.59028e-015 26.3763 8.18765 13.3902 34.0516 -32.776 11.7174 -28.801 0.591586 97.8453 -25.3093 3.96263 -3.50656 -3.18055e-015 -7.95139e-015 -9.54166e-015 -3.18055e-015 -8.74653e-015 -8.74652e-015 -1.89965 0.21625 -1.45418 
